<svg width="18" height="18" viewBox="0 0 18 18" fill="none" xmlns="http://www.w3.org/2000/svg">
<path d="M9.3511 3.19433C9.10776 3.43425 9.08493 3.81335 9.28441 4.07935L9.34433 4.1489L13.4625 8.325L2.925 8.325C2.55221 8.325 2.25 8.62721 2.25 9C2.25 9.34412 2.5075 9.62809 2.84033 9.66974L2.925 9.675H13.4625L9.34433 13.8511C9.10441 14.0944 9.08697 14.4738 9.2902 14.737L9.3511 14.8057C9.59444 15.0456 9.97384 15.063 10.237 14.8598L10.3057 14.7989L15.5557 9.4739C15.7932 9.23299 15.813 8.85817 15.615 8.59494L15.5557 8.5261L10.3057 3.2011C10.0439 2.93563 9.61657 2.9326 9.3511 3.19433Z" fill="white"/>
</svg>
