<svg width="40" height="40" viewBox="0 0 40 40" fill="none" xmlns="http://www.w3.org/2000/svg">
<rect width="40" height="40" rx="20" fill="#998675"/>
<path d="M20.3089 16.2213C20.6837 15.8948 21.2522 15.9341 21.5786 16.3089L24.2786 19.4089C24.5738 19.7477 24.5738 20.2523 24.2786 20.5911L21.5786 23.6911C21.2522 24.0659 20.6837 24.1051 20.3089 23.7786C19.9341 23.4522 19.8948 22.8837 20.2213 22.5089L21.622 20.9H16.4C15.8865 20.9 15.5302 20.4871 15.5 20C15.5 19.5029 15.9029 19.1 16.4 19.1H21.622L20.2213 17.4911C19.8828 17.1024 19.9633 16.5657 20.3089 16.2213Z" fill="white"/>
<path fill-rule="evenodd" clip-rule="evenodd" d="M12.9996 12.9996C14.7902 11.2091 17.2664 10.1 20 10.1C22.7335 10.1 25.2098 11.2091 27.0003 12.9996C28.7909 14.7902 29.9 17.2664 29.9 20C29.9 22.7335 28.7909 25.2098 27.0003 27.0003C25.2098 28.7909 22.7335 29.9 20 29.9C17.2664 29.9 14.7902 28.7909 12.9996 27.0003C11.2091 25.2098 10.1 22.7335 10.1 20C10.1 17.2664 11.2091 14.7902 12.9996 12.9996ZM20 11.9C17.763 11.9 15.7392 12.8056 14.2724 14.2724C12.8056 15.7392 11.9 17.763 11.9 20C11.9 22.237 12.8056 24.2607 14.2724 25.7275C15.7392 27.1943 17.763 28.1 20 28.1C22.237 28.1 24.2607 27.1943 25.7275 25.7275C27.1943 24.2607 28.1 22.237 28.1 20C28.1 17.763 27.1943 15.7392 25.7275 14.2724C24.2607 12.8056 22.237 11.9 20 11.9Z" fill="white"/>
</svg>
