<svg width="602" height="557" viewBox="0 0 602 557" fill="none" xmlns="http://www.w3.org/2000/svg">
<g opacity="0.05">
<path d="M20.4954 475.598C37.7671 460.084 52.5142 447.547 66.4616 434.159C127.259 376.358 170.04 302.171 189.638 220.558C196.662 192.056 203.885 163.004 216.083 136.529C227.227 113.036 241.968 91.4301 259.775 72.4934C285.095 45.2427 314.389 45.9434 342.084 70.8669C371.928 97.7422 388.825 132.475 399.823 170.486C409.821 205.168 418.069 240.552 430.192 274.409C457.012 349.604 505.178 409.936 565.791 460.909C570.365 464.763 574.99 468.567 582.813 475.098C566.016 492.389 550.319 508.504 534.697 524.644C527.674 531.876 520.575 530.55 512.202 526.396C452.513 496.718 416.92 447.322 399.548 384.713C386.5 337.668 378.827 289.123 365.329 242.253C356.863 212.964 344.833 184.827 329.511 158.474C310.89 126.569 293.468 127.47 272.747 158.099C247.002 196.135 236.779 240.227 225.931 283.943C215.758 324.856 208.584 366.721 195.362 406.558C177.565 460.284 142.022 500.672 90.607 526.321C81.2337 531.001 73.9601 530.976 66.7865 523.594C51.5144 507.879 36.3173 492.039 20.4954 475.598Z" fill="#998675"/>
<path d="M180.389 556.925C221.981 510.606 242.652 457.581 251.501 399.451C255.6 372.576 257.849 345.325 263.698 318.85C267.475 302.695 273.957 287.296 282.87 273.308C293.718 256.116 308.165 256.667 320.362 273.308C337.859 296.98 342.483 325.207 345.708 353.383C350.882 398.726 355.706 444.269 376.202 485.708C388.374 510.256 403.922 533.253 418.119 557L180.389 556.925Z" fill="#998675"/>
<path d="M0.174245 396.774C-1.07552 365.019 4.32346 336.867 18.7707 311.443C65.0869 229.867 111.728 148.44 159.419 67.6386C179.815 33.1061 211.084 11.0853 250.227 0.0749512C202.736 48.0201 183.914 109.453 165.843 171.537C150.571 224.086 129.974 274.283 97.6056 318.926C76.4347 348.103 50.7396 372.226 18.4207 388.691C13.1467 391.469 7.49785 393.571 0.174245 396.774Z" fill="#998675"/>
<path d="M352.432 0C395.074 11.9613 426.692 37.7856 448.663 75.6713C481.307 131.874 513.651 188.277 546.145 244.555C558.067 265.25 570.265 285.819 581.888 306.689C597.86 335.366 604.658 367.171 601.059 396.173C572.14 385.138 548.344 367.671 527.598 345.726C482.957 298.406 458.886 240.076 439.315 179.419C432.166 157.223 426.293 134.577 418.794 112.531C404.397 70.5914 383.126 32.6307 352.432 0Z" fill="#998675"/>
</g>
</svg>
