<svg width="40" height="40" viewBox="0 0 40 40" fill="none" xmlns="http://www.w3.org/2000/svg">
<rect x="40.0029" y="0.00292969" width="40" height="40" rx="20" transform="rotate(90.0042 40.0029 0.00292969)" fill="white"/>
<path d="M27.5015 20.002C27.5014 20.4162 27.1656 20.7519 26.7514 20.7519L20.7514 20.7515L20.7509 26.7515C20.7509 27.1657 20.4151 27.5014 20.0009 27.5014C19.5867 27.5014 19.251 27.1656 19.251 26.7514L19.2522 20.7513L13.2513 20.7509C12.8371 20.7509 12.5014 20.4151 12.5014 20.0009C12.5014 19.5867 12.8372 19.2509 13.2514 19.251L19.2524 19.2513L19.252 13.2513C19.252 12.8371 19.5878 12.5014 20.002 12.5014C20.4162 12.5014 20.7519 12.8372 20.7519 13.2514L20.7515 19.2515L26.7516 19.252C27.1657 19.252 27.5015 19.5878 27.5015 20.002Z" fill="#998675"/>
</svg>
