<svg width="20" height="19" viewBox="0 0 20 19" fill="none" xmlns="http://www.w3.org/2000/svg">
<path d="M0.680908 16.2232C1.25472 15.694 1.74466 15.2663 2.20802 14.8097C4.22788 12.838 5.64918 10.3074 6.30027 7.52346C6.53361 6.55122 6.7736 5.56021 7.17884 4.65711C7.54906 3.85574 8.03882 3.11874 8.63039 2.47278C9.47159 1.54322 10.4448 1.56713 11.3649 2.4173C12.3564 3.33405 12.9178 4.51883 13.2832 5.81543C13.6153 6.9985 13.8893 8.20547 14.2921 9.36037C15.1831 11.9254 16.7833 13.9834 18.7971 15.7222C18.949 15.8536 19.1026 15.9834 19.3626 16.2061C18.8045 16.796 18.283 17.3457 17.764 17.8962C17.5307 18.1429 17.2948 18.0977 17.0167 17.956C15.0337 16.9436 13.8512 15.2587 13.274 13.123C12.8405 11.5182 12.5856 9.86228 12.1372 8.26352C11.8559 7.26441 11.4563 6.30462 10.9472 5.40571C10.3286 4.31738 9.74977 4.34811 9.06137 5.3929C8.20605 6.69035 7.86642 8.19438 7.50602 9.6856C7.16804 11.0812 6.92972 12.5093 6.49043 13.8682C5.89918 15.7008 4.71834 17.0785 3.0102 17.9534C2.69879 18.1131 2.45715 18.1122 2.21882 17.8604C1.71144 17.3243 1.20656 16.784 0.680908 16.2232Z" fill="#998675"/>
<path d="M5.99298 18.9975C7.37478 17.4175 8.06152 15.6087 8.35549 13.6259C8.49167 12.7091 8.56641 11.7796 8.76072 10.8765C8.88619 10.3254 9.10155 9.80011 9.39765 9.32293C9.75804 8.73652 10.238 8.7553 10.6433 9.32293C11.2245 10.1304 11.3782 11.0933 11.4853 12.0544C11.6572 13.6011 11.8175 15.1546 12.4984 16.5682C12.9028 17.4056 13.4193 18.19 13.891 19.0001L5.99298 18.9975Z" fill="#998675"/>
<path d="M0.00578887 13.5341C-0.0357315 12.4509 0.143637 11.4906 0.623612 10.6234C2.16235 7.84069 3.71189 5.06312 5.29631 2.30688C5.97392 1.12893 7.01276 0.377776 8.31317 0.00219727C6.7354 1.63767 6.11011 3.73323 5.50972 5.85098C5.00234 7.64351 4.31809 9.35581 3.24271 10.8786C2.53936 11.8739 1.6857 12.6967 0.611985 13.2584C0.436769 13.3532 0.249098 13.4249 0.00578887 13.5341Z" fill="#998675"/>
<path d="M11.7087 0C13.1254 0.408015 14.1758 1.28892 14.9057 2.58125C15.9903 4.4984 17.0648 6.42239 18.1443 8.3421C18.5404 9.04802 18.9457 9.74967 19.3318 10.4616C19.8624 11.4398 20.0883 12.5247 19.9687 13.514C19.0079 13.1376 18.2174 12.5418 17.5282 11.7932C16.0451 10.179 15.2454 8.18932 14.5952 6.12022C14.3577 5.36309 14.1625 4.59059 13.9134 3.83858C13.4351 2.40797 12.7284 1.11308 11.7087 0Z" fill="#998675"/>
</svg>
